<svg version="1.1" xmlns="http://www.w3.org/2000/svg" xmlns:xlink="http://www.w3.org/1999/xlink" x="0px" y="0px" viewBox="0 0 241 130.2" style="enable-background:new 0 0 241 130.2;" xml:space="preserve">
<style type="text/css">
	.st0{fill:url(#Tracé_18_1_);}
	.st1{fill:#FFFFFF;}
</style>
<g id="Wireframe">
	
		<linearGradient id="Tracé_18_1_" gradientUnits="userSpaceOnUse" x1="52.1593" y1="132.822" x2="53.1593" y2="132.822" gradientTransform="matrix(153.5864 0 0 -130.1942 -8010.9541 17357.748)">
		<stop  offset="0" style="stop-color:#FFFFFF"/>
		<stop  offset="1" style="stop-color:#FFFFFF;stop-opacity:0.502"/>
	</linearGradient>
	<path id="Tracé_18" class="st0" d="M153.4,72.4l-22.7-14.1l1.7-21.6c1.6-0.2,2.7-1.5,2.5-3.1c-0.2-1.6-1.5-2.7-3.1-2.5
		c-0.5,0-1,0.2-1.4,0.5L101.2,3.2c0.6-1,0.3-2.3-0.7-2.9c-1-0.6-2.3-0.3-2.9,0.7s-0.3,2.3,0.7,2.9C98.4,4,98.4,4,98.5,4l-6.3,30.4
		L67.3,19c0.4-1.1-0.2-2.3-1.3-2.7c-1.1-0.4-2.3,0.2-2.7,1.3c-0.1,0.4-0.1,0.7-0.1,1.1l-4.7,2.2L51.6,9.6c-0.1-0.2-0.5-0.3-0.7-0.2
		c0,0,0,0,0,0L4.8,45.2c-1.2-1.1-3-1-4,0.2c-1.1,1.2-1,3,0.2,4c1.1,1,2.7,1,3.7,0.1l69.6,58.4c-1,1.7-0.5,3.8,1.1,4.9
		c1.7,1,3.8,0.5,4.9-1.1c0.9-1.4,0.7-3.3-0.6-4.4l3.5-4.9l41,27.8c0.1,0.1,0.2,0.1,0.3,0.1c0,0,0.1,0,0.1,0c0.1,0,0.2-0.1,0.2-0.1
		l0,0l0,0l0,0c0,0,0,0,0,0l0,0l0,0l0,0c0,0,0,0,0-0.1l28.5-56.8C153.6,72.8,153.6,72.6,153.4,72.4z M130.8,36.4
		c0.2,0.1,0.3,0.1,0.5,0.2l-1.6,21.1l-9.8-6.1L130.8,36.4z M99.5,4.3c0.4,0,0.7-0.1,1.1-0.3l29.1,28.4c-0.8,1.1-0.6,2.6,0.3,3.6
		l-11,15.2L93.1,35L99.5,4.3z M92.9,36.1l25.5,15.8L96.3,82.5l-9.7-15.8L92.9,36.1z M63.7,19.6c0.7,0.9,2,1.1,3,0.4
		c0.1-0.1,0.1-0.1,0.2-0.2L92,35.5l-6.2,30L59.1,21.8L63.7,19.6z M85.5,66.9l-6.5,31.4L5.4,48.4c0.3-0.6,0.3-1.2,0.1-1.9l52.6-24.4
		L85.5,66.9z M51.1,10.6l6.6,10.7L6.7,44.9L51.1,10.6z M78.9,99.3l-1.4,6.8c-0.1,0-0.1,0-0.2,0c-0.9,0-1.7,0.3-2.4,0.9l-64.3-54
		L78.9,99.3z M78.9,106.6c-0.1-0.1-0.3-0.1-0.4-0.2l1.3-6.4l2.6,1.8L78.9,106.6z M83,100.9l-3-2l6.3-30.7l9.3,15.2L83,100.9z
		 M83.8,101.5l12.4-17.2l26.7,43.7L83.8,101.5z M124.2,128.1L96.8,83.5l22.4-31l10.3,6.4L124.2,128.1z M125.3,127.2l5.3-67.8
		L152.4,73L125.3,127.2z"/>
</g>
<g id="Text">
	<g id="Groupe_9">
		<path id="Tracé_19" class="st1" d="M67.7,75h10.2v5.8H59.6V50.9h17.9v5.8h-9.8v6.1h8.4v5.8h-8.4V75z"/>
		<path id="Tracé_20" class="st1" d="M87.2,50.9h6.9c4.6,0,6.8,1.9,6.8,5.8V75c0,3.8-2.3,5.8-6.8,5.8h-6.9c-4.6,0-6.8-1.9-6.8-5.8
			V56.7C80.3,52.9,82.6,50.9,87.2,50.9z M92.8,74V57.8c0-0.7-0.4-1-1.2-1h-2c-0.8,0-1.2,0.3-1.2,1V74c0,0.7,0.4,1,1.2,1h2
			C92.4,75,92.8,74.6,92.8,74z"/>
		<path id="Tracé_21" class="st1" d="M115.9,74v-4.2c0-0.7-0.4-1-1.2-1h-4.5c-2.3,0-3.9-0.5-4.9-1.5c-1-1.2-1.5-2.8-1.4-4.3v-6.1
			c0-3.8,2.3-5.8,6.8-5.8h6.4c4.5,0,6.8,1.9,6.8,5.8v3.6h-8.1v-2.5c0-0.7-0.4-1-1.2-1h-1.3c-0.8,0-1.2,0.3-1.2,1v4.4
			c0,0.7,0.4,1,1.2,1h4.4c2.3,0,3.9,0.5,4.9,1.4c1,1.2,1.6,2.7,1.5,4.2V75c0,3.8-2.3,5.8-6.8,5.8h-6.3c-4.6,0-6.8-1.9-6.8-5.8v-3.6
			h8.1V74c0,0.7,0.4,1,1.2,1h1.3C115.5,75,115.9,74.6,115.9,74z"/>
		<path id="Tracé_22" class="st1" d="M147.3,62.1h-8.1v-4.8c0-0.7-0.4-1-1.2-1h-1.6c-0.8,0-1.2,0.3-1.2,1v17.1c0,0.7,0.4,1,1.2,1
			h1.6c0.8,0,1.2-0.3,1.2-1v-4.6h8.1V75c0,3.8-2.3,5.8-6.8,5.8h-6.6c-4.6,0-6.8-1.9-6.8-5.8V56.7c0-3.8,2.3-5.8,6.8-5.8h6.6
			c4.6,0,6.8,1.9,6.8,5.8V62.1z"/>
		<path id="Tracé_23" class="st1" d="M170.3,55.1h-8.5v9.6h6.7V68h-6.7v12.8h-4.2V51.7h12.7L170.3,55.1z"/>
		<path id="Tracé_24" class="st1" d="M181.4,58.1h4.2v22.7h-4.2V79c-0.4,1.2-1.6,2-2.9,1.8h-1.7c-2.8,0-4.2-1.4-4.2-4.1V58.1h4.2
			v18c-0.1,0.4,0,0.8,0.3,1.1c0.3,0.2,0.7,0.3,1.1,0.3h1.6c0.4,0,0.9-0.1,1.2-0.4c0.3-0.4,0.4-0.8,0.3-1.3L181.4,58.1z"/>
		<path id="Tracé_25" class="st1" d="M197.3,61.5h-3.1v14.4c-0.2,0.6,0.1,1.2,0.7,1.3c0.2,0.1,0.5,0.1,0.7,0h1.8v3.6h-3
			c-2.9,0-4.4-1.4-4.4-4.1V61.5h-2.1v-3.4h2.1v-3.9h4.2v3.9h3.1L197.3,61.5z"/>
		<path id="Tracé_26" class="st1" d="M208.5,58.1h4.2v22.7h-4.2V79c-0.4,1.2-1.6,2-2.9,1.8H204c-2.8,0-4.2-1.4-4.2-4.1V58.1h4.2v18
			c-0.1,0.4,0,0.8,0.3,1.1c0.3,0.2,0.7,0.3,1.1,0.3h1.6c0.4,0,0.9-0.1,1.2-0.4c0.3-0.4,0.4-0.8,0.3-1.3L208.5,58.1z"/>
		<path id="Tracé_27" class="st1" d="M224.6,58.1h0.9v3.6h-1.7c-2,0-2.9,1.1-2.9,3.4v15.7h-4.2V58.1h4.2v2.8c0.2-0.8,0.7-1.5,1.3-2
			C223,58.3,223.8,58,224.6,58.1z"/>
		<path id="Tracé_28" class="st1" d="M232.1,58.1h4.6c2.9,0,4.4,1.4,4.4,4.1v8.5h-9.2v5.4c0,0.4,0.1,0.8,0.3,1.1
			c0.3,0.2,0.7,0.3,1.1,0.3h2.1c0.6,0.2,1.2-0.1,1.4-0.7c0.1-0.2,0.1-0.4,0-0.7v-1.9h4.1v2.5c0,2.7-1.4,4.1-4.3,4.1h-4.5
			c-2.9,0-4.3-1.4-4.3-4.1V62.2C227.8,59.5,229.2,58.1,232.1,58.1z M231.9,67.7h5v-4.9c0-0.4,0-0.8-0.3-1.1
			c-0.3-0.2-0.7-0.3-1.1-0.3h-2.3c-0.4,0-0.8,0.1-1.1,0.3c-0.2,0.3-0.3,0.7-0.3,1.1L231.9,67.7z"/>
	</g>
</g>
</svg>
