<?xml version="1.0" standalone="no"?>
<!DOCTYPE svg PUBLIC "-//W3C//DTD SVG 20010904//EN"
 "http://www.w3.org/TR/2001/REC-SVG-20010904/DTD/svg10.dtd">
<svg version="1.0" xmlns="http://www.w3.org/2000/svg"
 width="1237.000000pt" height="1237.000000pt" viewBox="0 0 1237.000000 1237.000000"
 preserveAspectRatio="xMidYMid meet">
<metadata>
Created by potrace 1.11, written by Peter Selinger 2001-2013
</metadata>
<g transform="translate(0.000000,1237.000000) scale(0.100000,-0.100000)"
fill="#000000" stroke="none">
<path d="M5495 11200 c-1115 -56 -2137 -456 -2995 -1171 -152 -126 -451 -422
-584 -579 -982 -1152 -1396 -2691 -1122 -4170 14 -74 28 -148 31 -165 6 -30 6
-30 -142 -104 -203 -101 -573 -308 -573 -321 0 -3 26 -14 58 -26 l59 -20 109
64 c127 73 512 267 519 261 2 -3 29 -88 59 -190 236 -798 647 -1495 1240
-2106 71 -74 127 -135 125 -136 -52 -40 -733 -661 -755 -688 -6 -8 -14 -52
-17 -98 l-7 -85 148 145 c160 158 356 336 580 528 l143 122 42 -36 c228 -195
389 -318 588 -448 1112 -728 2443 -985 3739 -720 814 166 1571 533 2230 1083
147 123 460 432 582 575 198 233 413 537 559 790 89 155 247 485 312 650 311
792 416 1663 301 2490 -54 392 -155 772 -304 1149 l-63 159 49 46 c27 25 137
127 243 226 737 686 1273 1414 1542 2095 28 69 54 135 59 148 24 57 2 33 -122
-128 -168 -219 -277 -340 -469 -516 -254 -234 -502 -435 -819 -666 -233 -169
-825 -558 -834 -547 -1 2 -45 67 -96 143 -313 466 -734 907 -1192 1249 -938
700 -2083 1054 -3223 997z m305 -425 c26 -32 -13 -81 -47 -59 -35 22 -23 74
17 74 10 0 23 -7 30 -15z m1012 -487 c21 -19 47 -31 82 -37 28 -5 39 -9 25
-10 -89 -4 -138 -50 -140 -130 l-2 -46 -11 55 c-14 72 -44 102 -116 116 l-55
11 47 2 c60 1 118 47 118 91 0 16 3 37 8 47 5 13 8 5 10 -26 3 -34 10 -51 34
-73z m-1312 -58 c24 -24 24 -29 4 -58 -29 -42 -84 -23 -84 30 0 45 46 62 80
28z m586 -75 c15 -23 15 -27 0 -50 -29 -44 -86 -28 -86 25 0 53 57 69 86 25z
m-1246 -340 c6 -8 9 -23 5 -34 -8 -25 -41 -36 -60 -21 -15 13 -20 51 -8 63 12
12 50 7 63 -8z m802 -20 c9 -21 9 -29 -4 -42 -24 -23 -68 -10 -68 20 0 49 52
64 72 22z m-682 -65 c20 -38 -12 -70 -54 -54 -16 6 -22 54 -9 67 14 14 53 6
63 -13z m114 -76 c19 -19 20 -25 3 -48 -19 -26 -61 -18 -65 12 -7 44 32 67 62
36z m1000 -80 c31 -30 8 -69 -36 -62 -26 3 -37 41 -18 64 16 18 35 18 54 -2z
m-1176 -92 c7 -47 -47 -72 -68 -32 -16 31 4 62 38 58 19 -2 28 -10 30 -26z
m-633 -22 c490 -104 1091 -444 1705 -968 196 -167 668 -645 859 -869 90 -106
171 -204 180 -217 9 -14 65 -88 125 -164 l109 -140 122 -21 c66 -11 144 -21
173 -21 46 0 57 5 107 45 l55 45 0 -240 0 -241 -57 39 c-71 48 -173 106 -178
101 -2 -2 41 -71 96 -154 229 -347 452 -744 594 -1058 l79 -176 17 27 c17 27
270 893 357 1222 l47 179 185 130 185 131 91 0 c50 0 145 -3 212 -7 l122 -6
39 -101 c21 -56 114 -310 206 -566 269 -748 376 -1026 420 -1092 14 -21 44
-52 67 -68 l41 -30 -551 0 c-304 0 -552 2 -552 4 0 3 27 31 60 64 92 93 99
130 49 279 l-31 93 -307 0 -308 0 -18 -52 c-24 -73 -31 -187 -15 -244 8 -26
28 -67 47 -90 l33 -44 -165 0 c-117 0 -165 -3 -165 -11 0 -7 14 -55 31 -108
71 -223 134 -512 159 -736 15 -135 12 -386 -5 -495 -60 -371 -256 -572 -596
-612 -114 -13 -261 -2 -429 32 -176 37 -569 172 -578 200 -5 15 11 13 60 -9
145 -62 386 -130 554 -156 131 -21 346 -16 439 9 178 49 310 156 389 317 57
116 83 216 95 371 24 294 -50 727 -190 1112 l-32 86 -81 0 -81 1 35 27 c19 15
47 38 62 52 l28 25 -52 125 c-61 146 -253 536 -327 663 -28 49 -51 91 -51 93
0 19 -346 542 -397 601 -25 29 -36 34 -116 45 -293 41 -498 -121 -337 -266 49
-44 111 -75 220 -111 143 -47 389 -158 404 -183 5 -8 -586 -380 -628 -396 -17
-7 -50 1 -137 34 -218 82 -305 140 -384 260 -156 234 -132 514 59 706 78 78
190 141 301 169 90 23 251 37 334 30 86 -8 88 -18 -23 120 -200 248 -545 625
-787 859 -854 827 -1619 1269 -2194 1268 -223 0 -372 -56 -502 -187 -84 -86
-149 -207 -184 -345 -33 -134 -38 -418 -10 -615 51 -358 184 -779 394 -1247
69 -153 201 -419 262 -526 l35 -62 -25 -10 c-74 -28 -66 -34 -155 122 -600
1055 -798 2098 -498 2638 55 100 169 214 263 262 71 37 149 63 233 78 75 14
296 3 407 -20z m2543 -306 c24 -17 29 -53 10 -72 -19 -19 -66 -15 -78 7 -14
28 -13 38 10 61 24 24 29 24 58 4z m-2337 -396 c21 -22 35 -28 68 -28 26 0 40
-4 36 -10 -3 -5 -21 -10 -40 -10 -45 0 -95 -49 -96 -93 0 -18 -4 -41 -9 -52
-6 -15 -9 -8 -9 28 -1 41 -6 53 -36 82 -28 29 -42 35 -77 35 -32 0 -39 3 -28
10 8 5 29 10 45 10 47 0 87 49 94 113 l5 52 11 -55 c6 -35 19 -65 36 -82z
m-523 51 c6 -49 -58 -65 -73 -18 -9 27 13 51 44 47 20 -2 27 -9 29 -29z m172
-194 c26 -32 -13 -81 -47 -59 -35 22 -23 74 17 74 10 0 23 -7 30 -15z m-1716
-1550 c67 -108 376 -634 515 -875 62 -107 115 -198 119 -202 4 -4 6 205 4 465
-3 538 7 478 -104 615 l-59 72 280 0 c155 0 281 -3 281 -7 0 -3 -27 -37 -60
-74 -33 -37 -64 -79 -70 -94 -13 -35 -14 -1417 0 -1465 5 -20 31 -63 58 -95
26 -33 60 -77 76 -97 l28 -38 -396 0 -395 0 -184 308 c-100 169 -261 441 -357
604 l-175 298 -7 -183 c-3 -100 -3 -317 1 -482 8 -346 6 -336 111 -448 33 -36
60 -67 60 -71 0 -3 -136 -6 -302 -6 l-301 0 46 31 c84 55 133 126 138 200 1
19 2 347 1 729 l-2 696 -75 93 c-41 52 -75 98 -75 102 0 5 175 8 397 7 l397
-3 50 -80z m2854 -30 c19 -49 110 -301 203 -558 282 -783 392 -1068 434 -1122
14 -19 25 -36 25 -39 0 -2 -15 -14 -34 -25 -33 -21 -45 -21 -515 -21 l-482 0
61 59 c99 97 104 126 52 289 l-26 82 -239 0 c-188 0 -237 -3 -231 -12 17 -30
209 -274 433 -553 132 -165 241 -303 241 -307 0 -4 -23 -23 -51 -42 l-51 -34
-27 31 c-132 153 -489 622 -626 820 -33 48 -63 87 -67 87 -18 0 -42 -110 -42
-190 0 -90 22 -157 65 -196 10 -9 19 -21 19 -26 0 -9 -510 -9 -553 1 -28 6
-27 7 52 70 45 35 94 80 110 100 23 29 57 134 175 543 154 534 246 876 246
919 0 31 -41 96 -104 167 l-48 52 472 -2 473 -3 35 -90z m3367 49 c-55 -46
-59 -46 -95 -9 l-34 35 80 0 79 -1 -30 -25z m-880 -956 c31 -35 74 -100 98
-147 41 -83 42 -86 42 -190 0 -96 -3 -112 -28 -163 -78 -158 -264 -301 -492
-377 -128 -42 -232 -55 -399 -48 -148 6 -223 19 -369 63 l-87 27 -53 -36 c-28
-20 -80 -59 -114 -87 l-63 -50 0 88 0 87 174 111 174 112 68 -19 c155 -44 358
-32 482 27 60 29 78 52 87 109 8 55 -19 96 -95 143 -32 20 -58 40 -57 44 3 10
549 366 564 367 6 1 37 -27 68 -61z m-1393 -449 l57 -47 -62 -41 -62 -41 -7
43 c-3 23 -7 66 -7 95 -1 61 -4 61 81 -9z m-2372 -524 c10 -12 10 -21 2 -40
-19 -42 -72 -26 -72 21 0 34 47 46 70 19z m4984 -308 c26 -19 18 -61 -12 -65
-44 -7 -67 32 -36 62 19 19 25 20 48 3z m616 -125 c0 -53 43 -92 113 -101 l52
-7 -53 -7 c-74 -11 -111 -51 -112 -122 -1 -37 -4 -45 -10 -30 -5 11 -9 34 -9
52 -1 40 -51 93 -89 94 -15 0 -36 4 -47 9 -16 7 -11 9 22 9 60 1 113 50 113
103 0 21 5 38 10 38 6 0 10 -17 10 -38z m-4150 -144 c37 -30 136 -107 222
-171 250 -187 312 -262 274 -334 -50 -97 -151 -101 -277 -11 -107 77 -286 272
-419 460 l-41 57 68 45 c66 45 68 45 88 27 11 -10 49 -43 85 -73z m3634 23
c35 -39 4 -90 -47 -77 -38 9 -48 53 -17 78 28 23 43 23 64 -1z m-720 -27 c21
-21 20 -40 -4 -64 -24 -24 -43 -25 -64 -4 -19 18 -21 55 -4 72 17 17 54 15 72
-4z m1430 -270 c21 -20 20 -43 -1 -66 -31 -34 -83 -12 -83 36 0 44 52 63 84
30z m-1834 -8 c6 -8 10 -25 8 -38 -4 -30 -46 -38 -65 -12 -17 23 -16 29 3 48
19 20 38 20 54 2z m391 -66 c22 -12 26 -59 7 -78 -17 -17 -48 -15 -70 5 -22
20 -23 41 -1 65 18 20 36 23 64 8z m-4340 -10 c22 -12 26 -59 7 -78 -27 -27
-88 -3 -88 34 0 16 35 54 51 54 6 0 19 -5 30 -10z m5527 -41 c6 -49 -58 -65
-73 -18 -9 27 13 51 44 47 20 -2 27 -9 29 -29z m-6844 -215 c9 -8 16 -23 16
-31 0 -21 -29 -53 -48 -53 -22 0 -52 30 -52 51 0 23 26 49 50 49 10 0 26 -7
34 -16z m-554 -59 c14 -17 5 -51 -16 -59 -35 -13 -73 41 -47 67 12 12 50 7 63
-8z m6935 -128 c39 -29 -6 -89 -49 -65 -21 12 -21 54 2 67 22 14 25 13 47 -2z
m-1107 -68 c4 -31 -20 -53 -47 -44 -45 14 -30 79 17 73 21 -2 28 -9 30 -29z
m-4488 6 c26 -32 -13 -81 -47 -59 -35 22 -23 74 17 74 10 0 23 -7 30 -15z
m-852 -53 c7 -47 -47 -72 -68 -32 -16 31 4 62 38 58 19 -2 28 -10 30 -26z
m6532 -45 c0 -38 49 -87 87 -88 15 0 37 -4 48 -9 16 -7 11 -9 -22 -9 -33 -1
-49 -8 -77 -35 -30 -28 -36 -40 -36 -75 0 -26 -4 -40 -10 -36 -5 3 -10 22 -10
42 0 50 -48 93 -115 102 l-50 7 52 8 c74 11 113 48 113 108 0 31 3 39 10 28 5
-8 10 -28 10 -43z m290 -82 c26 -32 -13 -81 -47 -59 -35 22 -23 74 17 74 10 0
23 -7 30 -15z m-6621 -9 c38 -46 -25 -111 -69 -71 -24 22 -25 42 -3 67 19 22
56 24 72 4z m1515 -27 c16 -24 9 -57 -17 -73 -21 -13 -63 6 -70 33 -13 50 57
82 87 40z m2156 -24 c26 -32 -13 -81 -47 -59 -35 22 -23 74 17 74 10 0 23 -7
30 -15z m-2670 -349 c19 -23 8 -61 -18 -64 -44 -7 -67 32 -36 62 19 20 38 20
54 2z m1699 -4 c7 -14 6 -25 -5 -40 -19 -27 -36 -28 -58 -3 -14 15 -15 24 -6
40 14 26 56 28 69 3z m-1129 -107 c26 -32 -13 -81 -47 -59 -35 22 -23 74 17
74 10 0 23 -7 30 -15z m-420 -462 c21 -27 32 -32 68 -32 23 -1 42 -5 42 -11 0
-5 -17 -10 -38 -10 -55 0 -90 -41 -100 -117 l-8 -58 -8 63 c-4 34 -12 62 -17
62 -5 0 -19 11 -31 25 -17 20 -32 25 -72 26 l-51 2 53 10 c74 14 107 47 118
117 l8 55 6 -51 c3 -32 14 -61 30 -81z m4161 87 c24 -14 25 -56 1 -69 -14 -7
-25 -6 -40 5 -26 18 -27 31 -5 56 19 21 19 21 44 8z"/>
<path d="M8748 6263 l-105 -338 235 -3 c129 -1 237 0 240 3 5 5 -245 654 -258
668 -4 4 -54 -144 -112 -330z"/>
<path d="M4626 6620 c-19 -51 -206 -660 -206 -669 0 -8 71 -11 241 -11 224 0
240 1 235 18 -35 106 -266 673 -270 662z"/>
</g>
</svg>
